PathFileType	4	(X/Y/Z)	D:\Share\Shared_Data\Ergonomics\Sit To Stand Pertubation\S2\Unperturbed.trc
DataRate	CameraRate	NumFrames	NumMarkers	Units	OrigDataRate	OrigDataStartFrame	OrigNumFrames	
100	100	19	18	m	100	2708	261
Frame#	Time	R_Toe			R_ASIS			R_Pelvis			V_Sacral			L_Pelvis			L_ASIS			Clavical			R_Acromium			L_Acromium			Sternum			Torso			R_Thigh_Med			R_Thigh_Lat			R_Thigh			R_Shank_Med			R_Shank_Lat			R_Shank			R_Heel			
		X1	Y1	Z1	X2	Y2	Z2	X3	Y3	Z3	X4	Y4	Z4	X5	Y5	Z5	X6	Y6	Z6	X7	Y7	Z7	X8	Y8	Z8	X9	Y9	Z9	X10	Y10	Z10	X11	Y11	Z11	X12	Y12	Z12	X13	Y13	Z13	X14	Y14	Z14	X15	Y15	Z15	X16	Y16	Z16	X17	Y17	Z17	X18	Y18	Z18	

2708	27.07	0.4398873	0.06953907	0.14427344	0.1366969	0.71163446	0.13488373	0.072376755	0.75276794	0.17610904	-0.078978279	0.75400311	0.022565676	0.036778141	0.76554529	-0.15731935	0.12583437	0.72633563	-0.13211743	0.43287015	0.9362417	0.0032297158	0.39329288	1.0198652	0.20796036	0.38303195	1.0342527	-0.18029886	0.34876791	0.79689337	0.0056448145	0.41002957	0.90741528	-0.10529487	0.45134567	0.47588388	0.10277416	0.43098422	0.49220184	0.20686993	0.31076114	0.64920612	0.16193243	0.30614371	0.10719006	0.10999237	0.28775046	0.0992817	0.20349338	0.39239798	0.34482275	0.22579128	0.20286969	0.058268982	0.15478908
2709	27.08	0.43986578	0.069417122	0.14435205	0.13919003	0.71609711	0.13526813	0.075177155	0.75782312	0.17676039	-0.076163399	0.76019849	0.023068981	0.039557781	0.77092114	-0.15679485	0.12836914	0.73083203	-0.13161571	0.43531558	0.94192749	0.0037904582	0.39580539	1.0254579	0.20853976	0.38542981	1.0398868	-0.17969888	0.35125748	0.80257135	0.0062572803	0.41244522	0.91306384	-0.10475785	0.45162802	0.47577414	0.10297914	0.43142102	0.49207889	0.2069612	0.3131051	0.6506698	0.16244766	0.30619711	0.10710616	0.1099247	0.28773807	0.099314804	0.2034006	0.39253735	0.34473993	0.22587337	0.20287947	0.058300312	0.15476781
2710	27.09	0.43986652	0.069253639	0.14441881	0.14169904	0.72063171	0.13568541	0.077962021	0.76293115	0.17743942	-0.073362	0.7664325	0.023602789	0.042302807	0.77634497	-0.15625288	0.13086305	0.7354035	-0.13111835	0.4376546	0.94779028	0.0043660312	0.39820215	1.0312333	0.20913515	0.38771216	1.0456558	-0.17908298	0.35368744	0.80840338	0.0068729553	0.41475723	0.91888861	-0.10422371	0.45184467	0.47569144	0.10316073	0.43180173	0.49198746	0.20702878	0.31540289	0.65212305	0.16294118	0.30625485	0.10701921	0.10985191	0.28773062	0.099347343	0.20330435	0.39264331	0.34468286	0.22593752	0.20288959	0.058336121	0.15474861
2711	27.1	0.43989651	0.069053932	0.14447583	0.14423138	0.72524097	0.13614308	0.080733589	0.76807733	0.17814807	-0.070573112	0.77268927	0.024168715	0.045014416	0.78180524	-0.15569211	0.13331711	0.74006348	-0.13063795	0.43990411	0.9538241	0.004954412	0.40048618	1.0371797	0.20974605	0.38987744	1.0515514	-0.17845126	0.35606219	0.81438068	0.0074886532	0.41697717	0.92488171	-0.10369036	0.45200018	0.47563464	0.10331718	0.43213589	0.4919277	0.20707501	0.31766428	0.65355902	0.16341997	0.30631766	0.10692931	0.10977157	0.28772974	0.099379707	0.20320325	0.39272452	0.34465262	0.22598586	0.20290286	0.058374424	0.15472995
2712	27.11	0.43996069	0.068829178	0.14452606	0.14678978	0.72993671	0.13665009	0.083494934	0.77324915	0.17888707	-0.067795204	0.77895239	0.024773203	0.047693699	0.78729095	-0.15510898	0.13573308	0.74483655	-0.13018732	0.44207825	0.96002319	0.0055547481	0.40265997	1.0432844	0.21037248	0.39192557	1.0575697	-0.17780359	0.3583877	0.82049817	0.0081046963	0.41911755	0.93103448	-0.10315296	0.45209827	0.47560272	0.10344733	0.43242868	0.49189743	0.20709904	0.31990637	0.65498102	0.16389308	0.30638498	0.10683723	0.10968211	0.28773581	0.099412483	0.20309604	0.39278455	0.34464804	0.22601807	0.20292085	0.058414017	0.15471135
2713	27.12	0.44005771	0.068591408	0.14457065	0.14937048	0.73473871	0.13721655	0.086250031	0.77843695	0.17965579	-0.065026085	0.78520605	0.025423468	0.050340931	0.79279211	-0.15449913	0.13811453	0.74975598	-0.12977718	0.44418729	0.96638147	0.0061667137	0.4047251	1.0495354	0.21101527	0.39385959	1.0637158	-0.17714107	0.36067355	0.8267533	0.0087240839	0.42119104	0.93733893	-0.10260533	0.45214276	0.47559454	0.10355146	0.43268237	0.49189316	0.20709857	0.32214481	0.65639471	0.16436748	0.30645529	0.1067447	0.10958365	0.28774863	0.099446472	0.20298216	0.3928223	0.34466714	0.22603326	0.20294389	0.058454285	0.1546931
2714	27.13	0.44017993	0.068349571	0.14460866	0.15196573	0.73966608	0.13785306	0.089003632	0.78363385	0.1804525	-0.062263248	0.79143707	0.02612278	0.052954865	0.79830035	-0.15385999	0.14046767	0.75485699	-0.12941205	0.44623672	0.97289307	0.0067903075	0.4066824	1.0559209	0.21167566	0.39568631	1.0700032	-0.17646678	0.36293375	0.83314716	0.0093516216	0.42320959	0.94378784	-0.10204224	0.45213715	0.4756087	0.10363155	0.43289761	0.49191171	0.20707204	0.32438806	0.65780396	0.16484532	0.3065267	0.10665418	0.10947791	0.28776797	0.099482674	0.20286195	0.3928338	0.34470859	0.22603168	0.20297185	0.058494835	0.15467531
2715	27.14	0.44031607	0.068108711	0.14463855	0.15456895	0.7447265	0.13856682	0.091760468	0.78883478	0.18127431	-0.059503445	0.79763599	0.026869806	0.055533516	0.80380841	-0.15319325	0.14280328	0.76016473	-0.12908147	0.44822684	0.97955243	0.0074255552	0.40853262	1.0624298	0.21235477	0.3974136	1.0764463	-0.17578404	0.36518503	0.83968286	0.0099922457	0.42518353	0.95037561	-0.10146104	0.45208398	0.47564316	0.10369067	0.43307507	0.49195059	0.20701964	0.32663925	0.65920947	0.16532455	0.30659799	0.10656812	0.10936781	0.28779431	0.09952211	0.20273677	0.39281506	0.34477167	0.2260153	0.20300433	0.05853587	0.1546577
2716	27.15	0.44045453	0.067871384	0.14465875	0.15717917	0.74990247	0.13935435	0.094524689	0.79403668	0.18211752	-0.056741783	0.80379553	0.027661324	0.058076694	0.80931183	-0.15250491	0.14513962	0.76567639	-0.12874606	0.45015472	0.98635529	0.0080719223	0.41027679	1.0690527	0.21305347	0.39904678	1.0830519	-0.17509431	0.36744449	0.84636639	0.010649568	0.42712003	0.95709863	-0.10086214	0.45198474	0.4756955	0.10373215	0.43321548	0.49200882	0.20694315	0.32889902	0.66061157	0.16580103	0.30666885	0.10648887	0.1092569	0.28782889	0.099565331	0.20260916	0.39276422	0.34485599	0.22598759	0.20304076	0.058578339	0.15463992
2717	27.16	0.44058594	0.067638878	0.14466743	0.15980211	0.75514777	0.14019521	0.09729995	0.79923706	0.18297815	-0.053971939	0.80991101	0.028493881	0.060588627	0.81480853	-0.15180167	0.14750528	0.77134247	-0.12832027	0.4520173	0.99329779	0.008728137	0.41191644	1.0757812	0.21377237	0.40058691	1.0898176	-0.17439728	0.3697312	0.85320575	0.01132609	0.4290231	0.96395435	-0.10024821	0.4518399	0.47576309	0.10375867	0.43331995	0.49208649	0.20684496	0.33116617	0.6620094	0.16627048	0.30673972	0.10641873	0.10914914	0.28787326	0.099612061	0.20248312	0.39268271	0.34496167	0.22595309	0.20308052	0.058623344	0.15462186
2718	27.17	0.44070432	0.067411613	0.14466298	0.16244781	0.76040277	0.14105775	0.10008943	0.80443323	0.18385233	-0.051188454	0.81598077	0.029361683	0.063078739	0.82029767	-0.15108722	0.14993643	0.77706311	-0.12767457	0.45381281	1.0003759	0.0093926315	0.41345389	1.0826075	0.21451164	0.40203308	1.0967375	-0.17369196	0.37206677	0.86020947	0.012024011	0.43089404	0.97094037	-0.099623413	0.45164978	0.4758439	0.10377277	0.43338947	0.49218494	0.20672778	0.33343817	0.66340192	0.16672928	0.3068111	0.1063596	0.10904848	0.28792871	0.099661201	0.20236337	0.39257434	0.3450892	0.22591675	0.20312305	0.058671494	0.1546042
2719	27.18	0.44080725	0.067189873	0.144645	0.16512523	0.76562372	0.14191446	0.10289577	0.8096217	0.18473601	-0.048389217	0.82200702	0.030254444	0.065559555	0.825776	-0.15036339	0.1524606	0.78272986	-0.12670387	0.45554092	1.0075847	0.010064062	0.4148923	1.0895239	0.21527103	0.40338437	1.1038042	-0.17297762	0.37447015	0.86738239	0.01274466	0.43273166	0.97805334	-0.098991982	0.45141638	0.47593726	0.10377751	0.43342453	0.49230548	0.20659447	0.33571121	0.66478729	0.16717407	0.30688303	0.10631255	0.10895841	0.28799536	0.099711082	0.20225444	0.39244308	0.34523944	0.2258828	0.20316788	0.058722664	0.15458833
2720	27.19	0.44089468	0.066975502	0.14461417	0.16783882	0.77079547	0.14275114	0.10572089	0.81479883	0.18562521	-0.04557571	0.82799292	0.031160122	0.068042816	0.83123724	-0.14963203	0.15507681	0.78828601	-0.12542515	0.45720221	1.0149189	0.010741754	0.41623581	1.0965227	0.21604944	0.40463962	1.1110094	-0.17225285	0.37694601	0.87471753	0.013485802	0.43453259	0.985289	-0.098357292	0.45114487	0.47604404	0.10377632	0.43342511	0.49244873	0.20644789	0.33798029	0.66616364	0.16760205	0.30695486	0.10627759	0.10888127	0.28807178	0.099759712	0.20215994	0.39229172	0.34541309	0.22585352	0.20321429	0.05877594	0.15457571
2721	27.2	0.44096759	0.066773552	0.14457167	0.17058826	0.77592395	0.14356451	0.10856558	0.81996094	0.18651677	-0.042751129	0.83393921	0.032070549	0.070536324	0.83667358	-0.14889467	0.15775677	0.79374078	-0.12397692	0.45879773	1.0223724	0.011425596	0.41748947	1.1035961	0.21684492	0.40579709	1.1183418	-0.17151511	0.37947119	0.88218323	0.014237383	0.43629257	0.99264258	-0.097721458	0.4508421	0.4761662	0.10377205	0.4333902	0.49261383	0.20629089	0.34023987	0.66752832	0.16801155	0.30702441	0.10625368	0.10881824	0.28815411	0.099804871	0.20208221	0.39212027	0.34560959	0.22582819	0.20326074	0.05882962	0.15456715
2722	27.21	0.4410264	0.066592186	0.14451981	0.17337024	0.7810249	0.14435634	0.11142908	0.8251059	0.18740877	-0.039918053	0.83984174	0.032984444	0.07304319	0.84207678	-0.14815129	0.16046507	0.79913153	-0.12251756	0.46032874	1.029938	0.012115203	0.41865857	1.1107363	0.21765511	0.40685355	1.1257877	-0.1707619	0.3819903	0.88971722	0.014979317	0.43800742	1.0001091	-0.097086098	0.45051254	0.4763053	0.10376692	0.43331784	0.49279874	0.20612622	0.34248459	0.66887787	0.16840276	0.30708859	0.10623907	0.10876994	0.28823654	0.099844139	0.20202246	0.39192532	0.34582584	0.22580301	0.20330467	0.058881157	0.15456261
2723	27.22	0.44107132	0.066440468	0.1444619	0.1761808	0.78611584	0.14513004	0.11430903	0.83023267	0.18830003	-0.037077103	0.8456925	0.033904472	0.075563034	0.84743958	-0.14740131	0.16317395	0.80449121	-0.12115256	0.4617962	1.0376074	0.012809287	0.41974741	1.117936	0.21847755	0.40780539	1.1333319	-0.16999254	0.3844332	0.89724048	0.0156867	0.43967484	1.0076828	-0.096453064	0.45015445	0.4764614	0.10376293	0.4332052	0.49300061	0.20595671	0.34470987	0.67020813	0.16877823	0.30714343	0.1062315	0.10873667	0.28831232	0.099875183	0.2019805	0.39170035	0.34605731	0.2257729	0.20334308	0.058927441	0.15456174
2724	27.23	0.44110306	0.066325119	0.14440187	0.17901605	0.79121222	0.14588974	0.11720131	0.83534161	0.18918983	-0.034228001	0.85148572	0.034830242	0.078094299	0.85275629	-0.14664345	0.16586595	0.80983997	-0.1199323	0.46320056	1.0453716	0.013505979	0.42075992	1.1251873	0.21930957	0.40865042	1.1409613	-0.16920795	0.38674594	0.9046897	0.016339863	0.44129535	1.015357	-0.095825172	0.44975983	0.47663287	0.10376229	0.43304871	0.49321661	0.205786	0.34691183	0.67151624	0.16914233	0.30718564	0.10622864	0.10871799	0.28837549	0.09989624	0.20195485	0.39143701	0.34629956	0.22573534	0.20337349	0.058965584	0.15456435
2725	27.24	0.44112274	0.066248077	0.14434386	0.18187262	0.79632501	0.14664085	0.12010044	0.84043402	0.19007762	-0.031371288	0.85722119	0.035754486	0.080636787	0.85802313	-0.14587701	0.16853334	0.81518555	-0.11886927	0.46454218	1.0532208	0.014203231	0.4217002	1.1324834	0.22014755	0.40938934	1.1486667	-0.16840903	0.38890836	0.91203711	0.016929956	0.44287198	1.0231229	-0.095206215	0.44931885	0.47681836	0.1037682	0.43284436	0.4934447	0.20561873	0.34908658	0.67280011	0.16950038	0.30721368	0.10622857	0.10871272	0.28842212	0.099906654	0.20194322	0.39112814	0.34655038	0.22569443	0.20339485	0.058993954	0.15457051
2726	27.25	0.4411319	0.066205826	0.14429247	0.18474817	0.80146014	0.14738954	0.12300068	0.84551147	0.19096227	-0.028507889	0.86290308	0.036665859	0.083192726	0.86324054	-0.14510567	0.17117639	0.82052826	-0.11795221	0.46582153	1.0611466	0.014898809	0.42257233	1.139817	0.22098715	0.41002505	1.1564402	-0.16759666	0.39093774	0.91929498	0.01745895	0.44440909	1.0309712	-0.09460025	0.44882455	0.47701804	0.10378647	0.43258801	0.49368408	0.20546051	0.35123001	0.67405853	0.16985768	0.30722781	0.10623019	0.10871951	0.28845093	0.099906822	0.20194341	0.39076968	0.34681033	0.22566077	0.20340732	0.05901265	0.15458008
